<svg height="496pt" viewBox="-32 0 496 496" width="496pt" xmlns="http://www.w3.org/2000/svg"><path d="m264 184h-96l-8 40h112zm0 0" fill="#f0bc5e"/><path d="m431.160156 468.425781c-35.914062-71.816406-108.089844-116.425781-188.375-116.425781h-2.785156v51.152344c0 18.808594-5.566406 37.191406-16 52.847656h-16c-10.433594-15.648438-16-34.039062-16-52.847656v-51.152344h-2.785156c-80.285156 0-152.460938 44.609375-188.375 116.425781l-.839844 1.6875v25.886719h432v-25.886719zm0 0" fill="#f0bc5e"/><path d="m259.199219 41.609375c-12.390625 9.277344-27.734375 14.390625-43.199219 14.390625s-30.824219-5.128906-43.230469-14.414062c-8.21875-6.171876-18.433593-9.578126-28.769531-9.585938l-.015625 16c6.894531.007812 13.703125 2.273438 19.183594 6.390625 15.175781 11.351563 33.9375 17.609375 52.832031 17.609375s37.640625-6.238281 52.792969-17.585938c5.503906-4.132812 12.320312-6.40625 19.175781-6.414062l-.015625-16c-10.289063.007812-20.503906 3.425781-28.753906 9.609375zm0 0"/><path d="m368 86.304688v-6.3125c0-21.382813-8.335938-41.488282-23.464844-56.601563-15.101562-15.085937-35.175781-23.390625-56.519531-23.390625-.03125 0-.0625 0-.09375 0-17.152344.015625-34.160156 5.695312-47.914063 16-13.769531 10.3125-34.222656 10.328125-48.039062-.015625-13.746094-10.296875-30.761719-15.9765625-47.914062-15.984375-.023438 0-.039063 0-.0625 0-21.351563 0-41.433594 8.3125-56.535157 23.40625-15.128906 15.105469-23.457031 35.210938-23.457031 56.585938v6.3125c0 18.414062 6.425781 36.40625 18.078125 50.65625 12.554687 15.335937 23.1875 32.296874 31.617187 50.414062l2.152344 4.625h200.296875l2.152344-4.625c8.429687-18.117188 19.0625-35.078125 31.613281-50.414062 11.664063-14.25 18.089844-32.242188 18.089844-50.65625zm-62 89.695312h-180c-8.617188-17.59375-19.207031-34.121094-31.535156-49.175781-9.328125-11.390625-14.464844-25.785157-14.464844-40.519531v-6.3125c0-17.105469 6.664062-33.175782 18.761719-45.265626 12.085937-12.078124 28.140625-18.726562 45.230469-18.726562h.046874c13.730469.007812 27.335938 4.542969 38.351563 12.816406 19.273437 14.421875 47.90625 14.457032 67.234375-.03125 10.992188-8.234375 24.589844-12.769531 38.3125-12.785156h.078125c17.074219 0 33.128906 6.640625 45.214844 18.710938 12.105469 12.097656 18.769531 28.167968 18.769531 45.28125v6.3125c0 14.734374-5.136719 29.128906-14.464844 40.519531-12.328125 15.054687-22.917968 31.582031-31.535156 49.175781zm0 0"/><path d="m409.855469 290.871094-25.855469 31.03125v-121.902344h-16v121.902344l-25.855469-31.03125-12.289062 10.257812 46.144531 55.367188 46.144531-55.367188zm0 0"/><path d="m64 321.902344v-121.902344h-16v121.902344l-25.855469-31.03125-12.289062 10.257812 46.144531 55.367188 46.144531-55.367188-12.289062-10.257812zm0 0"/><path d="m184 224v32h64v-32h-16v16h-32v-16zm0 0"/><path d="m248 272h-64c-8.824219 0-16 7.175781-16 16v16c0 8.824219 7.175781 16 16 16v83.160156c0 20.457032 6 40.265625 17.34375 57.28125l2.375 3.558594h24.5625l2.375-3.558594c11.34375-17.015625 17.34375-36.832031 17.34375-57.28125v-83.160156c8.824219 0 16-7.175781 16-16v-16c0-8.824219-7.175781-16-16-16zm-48 128v-16h32v16zm0-32v-16h32v16zm19.601562 80h-7.203124c-5.910157-9.855469-9.71875-20.710938-11.390626-32h29.984376c-1.671876 11.289062-5.480469 22.144531-11.390626 32zm12.398438-112h-32v-16h32zm-48-32v-16h64l.007812 16zm0 0"/></svg>