<svg height="496pt" viewBox="0 0 496 496" width="496pt" xmlns="http://www.w3.org/2000/svg"><path d="m304 192h-96c-8.839844 0-16-7.160156-16-16v-8h128v8c0 8.839844-7.160156 16-16 16zm0 0" fill="#f0bc5e"/><path d="m485.480469 329.128906-61.886719-55.015625c-7.335938-6.527343-16.769531-10.113281-26.578125-10.113281h-264.441406l-70.367188-119.617188c-5.941406-10.109374-16.917969-16.382812-28.984375-16.382812-18.320312 0-33.222656 14.902344-33.222656 33.222656 0 5.832032 1.542969 11.59375 4.480469 16.648438l75.359375 130.167968c7.121094 12.3125 20.382812 19.960938 34.617187 19.960938h102.671875c3.566406-13.777344 15.976563-24 30.871094-24s27.304688 10.222656 30.871094 24h109.089844l56.253906 48.414062c5.6875 4.890626 12.953125 7.585938 20.449218 7.585938 17.28125 0 31.335938-14.054688 31.335938-31.457031 0-8.941407-3.832031-17.480469-10.519531-23.414063zm0 0" fill="#f0bc5e"/><path d="m447.816406 478.265625c-9.945312-44.722656-48.03125-76.25-93.410156-78.089844l-40.183594-40.175781h37.777344c8.824219 0 16-7.175781 16-16v-16c0-8.824219-7.175781-16-16-16h-72.207031c-7.3125-9.65625-18.785157-16-31.792969-16s-24.488281 6.34375-31.792969 16h-72.207031c-8.824219 0-16 7.175781-16 16v16c0 8.824219 7.175781 16 16 16h72.207031c5.449219 7.191406 13.199219 12.472656 22.21875 14.710938l42.710938 42.714843c-11.601563 7.941407-21.441407 18.34375-28.816407 30.574219h-188.320312v48h384v-16zm-95.816406-150.265625v16h-64.808594c.527344-2.585938.808594-5.265625.808594-8s-.28125-5.414062-.808594-8zm-208 16v-16h64.808594c-.527344 2.585938-.808594 5.265625-.808594 8s.28125 5.414062.808594 8zm80-8c0-13.230469 10.769531-24 24-24s24 10.769531 24 24-10.769531 24-24 24-24-10.769531-24-24zm36.222656 37.886719c7.890625-2.550781 14.671875-7.414063 19.570313-13.886719h11.808593l40.246094 40.246094c-12.863281.746094-25.128906 3.824218-36.28125 8.976562zm-180.222656 106.113281v-16h164.542969c-1.75 4.59375-3.261719 9.328125-4.359375 14.265625l-.015625 1.734375zm176.207031 0c9.21875-37.777344 42.496094-64 81.546875-64h12.484375c39.058594 0 72.328125 26.222656 81.546875 64zm0 0"/><path d="m496 177.296875v-25.296875h-112v25.296875l6.289062 18.871094c2.542969 7.632812 6.765626 14.3125 12.101563 19.832031h-34.390625v-96c0-8.824219 7.175781-16 16-16s16 7.175781 16 16v16h16v-16c0-17.648438-14.351562-32-32-32s-32 14.351562-32 32v96h-64v-16h16c13.230469 0 24-10.769531 24-24v-56c0-13.230469-10.769531-24-24-24h-56v-50.007812c0-25.359376-20.632812-45.992188-45.992188-45.992188-13.855468 0-26.832031 6.152344-35.59375 16.863281l-44.207031 54.023438-23.574219-23.574219c-4.65625-4.648438-11.089843-7.3125-17.664062-7.3125-13.769531 0-24.96875 11.199219-24.96875 24.96875 0 6.574219 2.664062 13.007812 7.3125 17.65625l62.0625 62.0625c4.648438 4.648438 11.082031 7.3125 17.65625 7.3125 13.769531 0 24.96875-11.199219 24.96875-24.96875 0-6.574219-2.664062-13.007812-7.3125-17.65625l-27.113281-27.109375 45.226562-55.265625c5.703125-6.992188 14.167969-11 23.207031-11 16.535157 0 29.992188 13.457031 29.992188 29.992188v50.007812h-24c-13.230469 0-24 10.769531-24 24v56c0 13.230469 10.769531 24 24 24h16v16h-8c-13.230469 0-24 10.769531-24 24v24h16v-24c0-4.414062 3.585938-8 8-8h256c4.414062 0 8 3.585938 8 8v32h16v-32c0-11.480469-8.113281-21.078125-18.894531-23.425781 5.589843-5.613281 9.972656-12.519531 12.597656-20.398438zm-344-50.265625c0 4.945312-4.023438 8.96875-8.96875 8.96875-2.359375 0-4.671875-.953125-6.34375-2.625l-62.0625-62.0625c-1.671875-1.671875-2.625-3.984375-2.625-6.34375 0-4.945312 4.023438-8.96875 8.96875-8.96875 2.359375 0 4.671875.953125 6.34375 2.625l62.0625 62.0625c1.671875 1.671875 2.625 3.984375 2.625 6.34375zm48 48.96875v-56c0-4.414062 3.585938-8 8-8h96c4.414062 0 8 3.585938 8 8v56c0 4.414062-3.585938 8-8 8h-96c-4.414062 0-8-3.585938-8-8zm40 24h32v16h-32zm240-25.296875-5.480469 16.410156c-4.953125 14.886719-18.824219 24.886719-34.519531 24.886719s-29.566406-10-34.527344-24.886719l-5.472656-16.410156v-6.703125h80zm0 0"/></svg>