<?xml version="1.0" ?><svg viewBox="0 0 64 64" xmlns="http://www.w3.org/2000/svg"><title/><g data-name="30-Doctor" id="_30-Doctor"><path d="M28,34H26a3,3,0,0,0-3,3V57l3,1v5" style="fill:none;stroke:#000;stroke-linejoin:round;stroke-width:2px"/><polyline points="23 57 20 58 20 63" style="fill:none;stroke:#000;stroke-linejoin:round;stroke-width:2px"/><path d="M36,34h2a3,3,0,0,1,3,3V52" style="fill:none;stroke:#000;stroke-linejoin:round;stroke-width:2px"/><path d="M41,11v6h1a2,2,0,0,1,2,2v1.394a3,3,0,0,1-1.336,2.5L41,24a9.285,9.285,0,0,1-18,0l-1.665-1.109A3,3,0,0,1,20,20.394V19a2,2,0,0,1,2-2h1V11" style="fill:none;stroke:#000;stroke-linejoin:round;stroke-width:2px"/><ellipse cx="36.5" cy="18.5" rx="0.5" ry="1.5" style="fill:none;stroke:#000;stroke-linejoin:round;stroke-width:2px"/><ellipse cx="27.5" cy="18.5" rx="0.5" ry="1.5" style="fill:none;stroke:#000;stroke-linejoin:round;stroke-width:2px"/><path d="M23,24a22.282,22.282,0,0,1,9-2,22.282,22.282,0,0,1,9,2" style="fill:none;stroke:#000;stroke-linejoin:round;stroke-width:2px"/><path d="M20,19V9a8,8,0,0,1,8-8h8a8,8,0,0,1,8,8V19" style="fill:none;stroke:#000;stroke-linejoin:round;stroke-width:2px"/><path d="M44,14s-2-4-12-4-12,4-12,4" style="fill:none;stroke:#000;stroke-linejoin:round;stroke-width:2px"/><polyline points="28 36 32 39 36 36" style="fill:none;stroke:#000;stroke-linejoin:round;stroke-width:2px"/><polyline points="36 30 36 36 50 40 54 55 45 55 45 63" style="fill:none;stroke:#000;stroke-linejoin:round;stroke-width:2px"/><line style="fill:none;stroke:#000;stroke-linejoin:round;stroke-width:2px" x1="51" x2="51" y1="55" y2="63"/><polyline points="19 63 19 55 10 55 14 40 28 36 28 30" style="fill:none;stroke:#000;stroke-linejoin:round;stroke-width:2px"/><line style="fill:none;stroke:#000;stroke-linejoin:round;stroke-width:2px" x1="13" x2="13" y1="55" y2="63"/><polyline points="24 37 32 43 40 37" style="fill:none;stroke:#000;stroke-linejoin:round;stroke-width:2px"/><polyline points="53 52 45 52 45 55" style="fill:none;stroke:#000;stroke-linejoin:round;stroke-width:2px"/><path d="M35,52h7v6a2,2,0,0,1-2,2H37a2,2,0,0,1-2-2Z" style="fill:none;stroke:#000;stroke-linejoin:round;stroke-width:2px"/><polyline points="19 55 19 52 11 52" style="fill:none;stroke:#000;stroke-linejoin:round;stroke-width:2px"/></g></svg>