<svg width="24" height="24" xmlns="http://www.w3.org/2000/svg">
 <title/>

 <g>
  <title>background</title>
  <rect fill="none" id="canvas_background" height="402" width="582" y="-1" x="-1"/>
 </g>
 <g>
  <title>Layer 1</title>
  <path id="svg_1" fill="#303c42" d="m11.35,15.15a0.5,0.5 0 0 0 -0.71,0l-8,8a0.5,0.5 0 0 0 0.36,0.85l16,0a0.5,0.5 0 0 0 0.35,-0.85l-8,-8z"/>
  <path id="svg_2" fill="#303c42" d="m21.63,14.62a0.5,0.5 0 0 0 -0.56,0.23a12.73,12.73 0 0 0 -1.6,3.95l0,0a1.47,1.47 0 0 1 -0.11,0.31a0.5,0.5 0 0 0 0.1,0.56l1.68,1.68a0.5,0.5 0 0 0 0.86,-0.35l0,-5.9a0.5,0.5 0 0 0 -0.37,-0.48z"/>
  <path id="svg_3" fill="#303c42" d="m11.92,9.82a9.31,9.31 0 0 1 -0.88,-3l0,0a6.79,6.79 0 0 1 -0.04,-0.82a6.9,6.9 0 0 1 0.81,-3.27a0.5,0.5 0 0 0 -0.44,-0.73l-9.37,0a2,2 0 0 0 -2,2l0,17a0.5,0.5 0 0 0 0.85,0.35l11,-11a0.5,0.5 0 0 0 0.07,-0.53zm-6.42,0.68a3,3 0 1 1 1.8,-5.4a0.5,0.5 0 1 1 -0.6,0.8a2,2 0 1 0 0.74,2.1l-1.44,0a0.5,0.5 0 0 1 0,-1l2,0a0.5,0.5 0 0 1 0.5,0.5a3,3 0 0 1 -3,3z"/>
  <path id="svg_4" fill="#6271fd" d="m18,0a6,6 0 0 0 -6,6a5.92,5.92 0 0 0 0,0.68c0.21,2.13 1.35,3.89 2.56,5.75a17.6,17.6 0 0 1 2.91,6.17a0.5,0.5 0 0 0 1,0a17.6,17.6 0 0 1 2.91,-6.17c1.21,-1.86 2.35,-3.62 2.56,-5.74a6,6 0 0 0 -5.94,-6.69zm0,3a3,3 0 1 1 -3,3a3,3 0 0 1 3,-3z"/>
 </g>
</svg>