<svg height="496pt" viewBox="0 0 496.00151 496" width="496pt" xmlns="http://www.w3.org/2000/svg"><path d="m352 408h-32c-8.839844 0-16-7.160156-16-16s7.160156-16 16-16h16c8.839844 0 16-7.160156 16-16s-7.160156-16-16-16h-32c-8.839844 0-16-7.160156-16-16s7.160156-16 16-16 16-7.160156 16-16-7.160156-16-16-16h-47.367188c-.382812 6.542969-.632812 13.097656-.632812 19.671875v58.65625c0 9.761719-7.910156 17.671875-17.664062 17.671875-8.351563 0-15.566407-5.855469-17.285157-14.023438l-5.050781-23.976562v102h136c8.839844 0 16-7.160156 16-16s-7.160156-16-16-16zm0 0" fill="#f0bc5e"/><path d="m181.3125 384.214844c-7.863281 1.28125-13.3125 8.675781-13.3125 16.640625v30.289062c0 7.96875-5.445312 15.359375-13.308594 16.640625-10.027344 1.625-18.691406-6.0625-18.691406-15.785156v-160l-2.773438 3.167969-18.273437 86.808593c-1.71875 8.167969-8.925781 14.023438-17.289063 14.023438-9.75 0-17.664062-7.910156-17.664062-17.664062v-22.335938h-63.140625c-7.96875 0-15.363281 5.449219-16.640625 13.3125-1.625 10.023438 6.0625 18.6875 15.78125 18.6875h23c8.554688 0 16.335938 6.273438 16.953125 14.808594.679687 9.273437-6.566406 17.03125-15.664063 17.191406-7.824218.136719-14.902343 5.730469-16.085937 13.457031-1.539063 9.960938 6.125 18.542969 15.796875 18.542969h31.144531c7.96875 0 15.359375 5.449219 16.640625 13.3125 1.625 10.023438-6.0625 18.6875-15.785156 18.6875h-15.140625c-7.96875 0-15.363281 5.449219-16.640625 13.3125-1.625 10.023438 6.0625 18.6875 15.78125 18.6875h128c8.839844 0 16-7.160156 16-16v-80c0-9.71875-8.664062-17.40625-18.6875-15.785156zm0 0" fill="#f0bc5e"/><path d="m48 80v12.527344c0 8.496094 2.257812 16.855468 6.539062 24.183594 19.742188 33.832031 33.8125 70.472656 41.824219 108.914062l15.664063-3.265625c-8.363282-40.125-23.058594-78.390625-43.664063-113.710937-2.859375-4.878907-4.363281-10.457032-4.363281-16.121094v-12.527344c0-17.648438 14.351562-32 32-32 6.882812 0 13.699219 2.273438 19.195312 6.394531l9.597657-12.808593c-8.246094-6.175782-18.472657-9.585938-28.792969-9.585938-26.46875 0-48 21.527344-48 48zm0 0"/><path d="m472 200c-40.078125 0-80.496094-8.878906-116.886719-25.671875l-21.34375-9.847656c1.335938-3.953125 2.230469-8.097657 2.230469-12.480469s-.894531-8.527344-2.238281-12.472656l21.34375-9.855469c36.398437-16.792969 76.816406-25.671875 116.894531-25.671875 13.234375 0 24-10.765625 24-24 0-13.230469-10.765625-24-24-24h-38.65625c-17.03125 0-33.863281 2.730469-50.015625 8.121094-24.71875 8.238281-46.648437 22.390625-64.453125 41.207031.679688-4.207031 1.125-8.464844 1.125-12.792969v-12.535156c0-44.109375-35.886719-80-80-80-17.191406 0-34.238281 5.679688-48 16-13.75 10.320312-34.246094 10.328125-48 0-13.757812-10.320312-30.804688-16-48-16-44.109375 0-80 35.890625-80 80v12.535156c0 14.152344 3.769531 28.089844 10.898438 40.3125 29.503906 50.578125 45.101562 108.273438 45.101562 166.824219v58.664063c0 14.152343 11.511719 25.664062 25.664062 25.664062 12.066407 0 22.632813-8.566406 25.121094-20.375l24.105469-114.488281c2.085937-9.929688 10.96875-17.136719 21.109375-17.136719 10.144531 0 19.027344 7.207031 21.121094 17.136719l24.105468 114.488281c2.480469 11.808594 13.046876 20.375 25.109376 20.375 14.152343 0 25.664062-11.511719 25.664062-25.664062v-58.664063c0-32.109375 4.699219-63.949219 13.882812-94.703125 6.773438-3.664062 12.773438-8.238281 17.933594-13.480469.066406 0 .128906.015625.191406.015625 5.042969 0 9.824219-1.023437 14.273438-2.710937 19.105469 23.808593 44.183594 41.464843 73.054688 51.085937 16.152343 5.394532 32.976562 8.121094 50.007812 8.121094h38.65625c13.234375 0 24-10.765625 24-24 0-13.230469-10.765625-24-24-24zm-200-48c0-12.96875 10.769531-23.511719 24-23.511719 13.234375 0 24 10.542969 24 23.511719s-10.765625 23.511719-24 23.511719c-13.230469 0-24-10.542969-24-23.511719zm116.394531-72.703125c14.519531-4.839844 29.640625-7.296875 44.949219-7.296875h38.65625c4.410156 0 8 3.59375 8 8 0 4.410156-3.589844 8-8 8-42.375 0-85.117188 9.382812-123.589844 27.144531l-22.800781 10.519531c-.574219-.632812-1.085937-1.304687-1.703125-1.894531 17.023438-20.664062 39.128906-36.015625 64.488281-44.472656zm-140.394531 220.375v58.664063c0 5.328124-4.335938 9.664062-9.664062 9.664062-4.542969 0-8.519532-3.230469-9.460938-7.671875l-24.105469-114.488281c-3.632812-17.296875-19.105469-29.839844-36.769531-29.839844s-33.132812 12.542969-36.773438 29.832031l-24.105468 114.488281c-.9375 4.449219-4.910156 7.679688-9.457032 7.679688-5.328124 0-9.664062-4.335938-9.664062-9.664062v-58.664063c0-61.390625-16.34375-121.863281-47.277344-174.894531-5.707031-9.769532-8.722656-20.921875-8.722656-32.242188v-12.535156c0-35.289062 28.714844-64 64-64 13.753906 0 27.394531 4.542969 38.402344 12.800781 19.253906 14.457031 47.941406 14.449219 67.199218 0 11.007813-8.257812 24.648438-12.800781 38.398438-12.800781 35.289062 0 64 28.710938 64 64v12.535156c0 7.007813-1.152344 13.847656-3.367188 20.417969-1.535156-.175781-3.046874-.464844-4.632812-.464844-22.054688 0-40 17.726563-40 39.511719 0 1.015625.226562 1.96875.304688 2.960938-19.925782 8.511718-41.550782 13.039062-62.953126 13.039062h-39.621093l7.445312 12.175781c13.515625 22.097657 41.035157 35.824219 71.800781 35.824219 9.066407 0 17.890626-1.304688 26.21875-3.605469-7.402343 28.484375-11.195312 57.773438-11.195312 87.277344zm-15.023438-99.671875c-18.3125 0-35.511718-6-47.496093-16h7.863281c22.921875 0 46.074219-4.6875 67.488281-13.558594 3.714844 6.871094 9.351563 12.472656 16.28125 16.175782-11.785156 8.496093-27.457031 13.382812-44.136719 13.382812zm239.023438 32h-38.65625c-15.308594 0-30.4375-2.457031-44.957031-7.296875-25.359375-8.445313-47.464844-23.804687-64.488281-44.476563.613281-.59375 1.128906-1.265624 1.703124-1.898437l22.800782 10.519531c38.480468 17.769532 81.222656 27.152344 123.597656 27.152344 4.410156 0 8 3.59375 8 8 0 4.410156-3.589844 8-8 8zm0 0"/></svg>